<svg version="1.1" id="Layer_1" xmlns="http://www.w3.org/2000/svg" xmlns:xlink="http://www.w3.org/1999/xlink" x="0px" y="0px"
	 width="100%" viewBox="0 0 493 506" enable-background="new 0 0 493 506" xml:space="preserve" fill="#FBFBFC">
<path opacity="1.000000" stroke="none" 
	d="
M166.999847,493.697449 
	C127.187920,493.697418 87.876007,493.697418 47.177849,493.697418 
	C113.721451,360.767822 179.878006,228.611404 246.651016,95.223557 
	C285.144989,172.125671 323.076050,247.903259 361.309998,324.285889 
	C359.340820,324.457184 358.113129,324.655792 356.885223,324.657043 
	C337.723389,324.676392 318.560089,324.548584 299.400940,324.776215 
	C295.724823,324.819885 294.131958,323.331909 292.659790,320.370697 
	C278.366180,291.619598 263.972321,262.918365 249.599670,234.206619 
	C248.804825,232.618790 247.944870,231.063553 246.459244,228.251465 
	C213.032104,295.081543 180.134979,360.851990 146.825165,427.447540 
	C149.848038,427.447540 151.799881,427.446747 153.751740,427.447662 
	C219.235184,427.478241 284.718781,427.442932 350.201965,427.579529 
	C370.159668,427.621155 390.118042,428.068878 410.070557,428.556366 
	C411.752380,428.597473 414.204041,429.948730 414.928833,431.383179 
	C424.732178,450.784241 434.298920,470.304962 443.895782,489.810059 
	C444.381897,490.798157 444.609680,491.913330 445.197754,493.697449 
	C352.264374,493.697449 259.882111,493.697449 166.999847,493.697449 
z"/>
<path opacity="1.000000" stroke="none" 
	d="
M279.384766,32.189304 
	C282.894836,25.176857 286.314697,18.529762 290.246796,10.887066 
	C356.846008,144.047882 422.834564,275.987701 489.158295,408.597748 
	C486.142944,408.929810 483.615387,409.450562 481.087646,409.451538 
	C381.105133,409.490173 281.122650,409.482574 181.140152,409.476929 
	C174.240036,409.476562 174.036285,409.138794 177.112686,402.963623 
	C186.225937,384.670837 195.490967,366.451111 204.346069,348.034271 
	C206.304947,343.960205 208.939804,342.473846 213.042267,342.537384 
	C214.208435,342.555450 215.375153,342.539703 216.541611,342.539703 
	C272.031891,342.539673 327.522186,342.539673 383.012482,342.539673 
	C384.996124,342.539673 386.979767,342.539642 389.916870,342.539642 
	C388.934967,340.367401 388.296204,338.806976 387.540985,337.305115 
	C370.946899,304.303833 354.266907,271.345520 337.756104,238.302658 
	C321.492310,205.754196 305.454468,173.092896 289.207428,140.536041 
	C279.270782,120.624466 269.195129,100.781158 259.002502,80.999634 
	C257.456726,77.999657 257.502075,75.751602 259.046448,72.770584 
	C265.949951,59.445126 272.571289,45.973499 279.384766,32.189304 
z"/>
<path opacity="1.000000" stroke="none" 
	d="
M103.941711,344.133057 
	C93.590126,364.830505 83.508675,385.244598 73.162483,405.523651 
	C72.256378,407.299652 69.629166,409.293579 67.774391,409.320435 
	C48.783234,409.595032 29.786461,409.493683 10.791347,409.453339 
	C9.711246,409.451050 8.631958,409.065399 6.659794,408.686890 
	C72.977486,276.115967 139.025650,144.083847 205.509964,11.179838 
	C206.716980,13.025657 207.487106,13.994430 208.036972,15.075262 
	C217.802887,34.271549 227.611221,53.447208 237.161743,72.750359 
	C237.966614,74.377129 237.637512,77.194992 236.771561,78.928009 
	C192.634430,167.259720 148.381592,255.533600 103.941711,344.133057 
z"/>
<path opacity="1.000000" stroke="none" 
	d="
M240.000031,324.695343 
	C232.528015,324.695343 225.555954,324.695343 217.579620,324.695343 
	C227.448441,304.861328 236.983612,285.697845 247.342377,264.879181 
	C257.442139,285.166382 266.995300,304.355682 277.121185,324.695343 
	C264.258057,324.695343 252.379013,324.695343 240.000031,324.695343 
z"/>
</svg>