<?xml version="1.0" standalone="no"?>
<!DOCTYPE svg PUBLIC "-//W3C//DTD SVG 20010904//EN"
 "http://www.w3.org/TR/2001/REC-SVG-20010904/DTD/svg10.dtd">
<svg version="1.0" xmlns="http://www.w3.org/2000/svg"
 width="400.000000pt" height="400.000000pt" viewBox="0 0 400.000000 400.000000"
 preserveAspectRatio="xMidYMid meet">

<g transform="translate(0.000000,400.000000) scale(0.100000,-0.100000)"
fill="#000000" stroke="none">
<path d="M1272 3395 c-276 -42 -508 -146 -727 -325 -91 -74 -145 -133 -236
-256 -162 -218 -253 -474 -266 -754 -10 -225 41 -478 137 -675 145 -298 397
-552 672 -680 300 -138 563 -161 1103 -94 187 24 421 118 525 212 79 71 117
134 136 220 9 42 21 77 25 77 5 0 8 17 8 38 -1 37 -1 37 -9 7 -6 -24 -8 -19
-7 25 1 30 -2 63 -7 73 -5 11 -4 17 3 17 6 0 11 -9 11 -20 0 -13 7 -20 20 -20
11 0 20 -7 20 -15 0 -8 5 -15 10 -15 6 0 10 6 10 13 0 9 23 11 90 9 74 -3 90
-1 90 11 0 10 16 16 56 20 48 5 58 3 77 -16 l22 -22 3 23 c2 13 10 26 18 29 8
3 14 10 14 15 0 6 -7 7 -16 4 -11 -4 -15 -2 -11 8 4 10 -7 23 -31 38 -63 40
-68 43 -99 63 -55 37 -93 74 -103 100 -9 23 -6 28 22 45 18 11 55 24 83 30 27
5 133 26 235 45 102 20 199 40 215 45 236 67 325 129 325 227 0 23 -6 54 -12
70 -17 37 -87 100 -161 146 -57 35 -260 137 -273 137 -16 0 -295 124 -304 135
-8 10 -7 15 2 22 7 4 173 11 368 15 379 7 450 15 517 61 73 49 53 167 -43 259
-67 64 -85 77 -194 139 -349 199 -840 391 -1175 458 -273 55 -364 63 -715 67
-251 2 -358 -1 -428 -11z m386 -99 c29 -8 64 -22 78 -30 27 -18 34 -52 8 -42
-8 3 -12 2 -9 -4 3 -5 -17 -9 -49 -9 -29 1 -67 -2 -82 -5 -16 -3 -108 -15
-204 -26 -96 -11 -227 -26 -290 -34 -63 -8 -146 -17 -185 -20 -38 -3 -85 -8
-103 -12 -78 -16 13 54 148 114 75 33 164 59 270 78 96 17 344 11 418 -10z
m-431 -700 c119 -100 128 -404 16 -535 -43 -51 -71 -53 -111 -7 -62 71 -93
213 -73 336 13 77 61 181 98 210 32 25 35 25 70 -4z m-844 -24 c54 -59 84
-214 67 -346 -10 -78 -58 -206 -78 -206 -22 0 -64 74 -81 143 -15 61 -16 218
-2 279 16 69 53 148 71 148 4 0 14 -8 23 -18z m2587 -1232 c0 -5 -5 -10 -11
-10 -5 0 -7 5 -4 10 3 6 8 10 11 10 2 0 4 -4 4 -10z m-60 -53 c11 -5 9 -6 -4
-4 -11 1 -21 9 -23 17 -3 10 -2 11 4 4 4 -6 15 -14 23 -17z m107 17 c-3 -3
-12 -4 -19 -1 -8 3 -5 6 6 6 11 1 17 -2 13 -5z m-413 -60 c4 -10 1 -14 -6 -12
-15 5 -23 28 -10 28 5 0 13 -7 16 -16z m26 -34 c0 -5 -4 -10 -10 -10 -5 0 -10
5 -10 10 0 6 5 10 10 10 6 0 10 -4 10 -10z"/>
<path d="M3090 1273 c0 -10 -7 -27 -15 -37 -19 -25 -19 -36 0 -36 8 0 15 7 15
15 0 8 6 15 14 15 8 0 16 6 19 13 4 10 7 10 18 0 11 -11 10 -13 -4 -13 -9 0
-17 -4 -17 -10 0 -16 37 -11 44 6 9 23 9 22 -34 44 -37 19 -40 19 -40 3z"/>
<path d="M3200 1210 c0 -5 5 -10 11 -10 5 0 7 5 4 10 -3 6 -8 10 -11 10 -2 0
-4 -4 -4 -10z"/>
<path d="M3240 1171 c0 -5 5 -13 10 -16 6 -3 10 -2 10 4 0 5 -4 13 -10 16 -5
3 -10 2 -10 -4z"/>
<path d="M3320 1106 c0 -8 5 -18 10 -21 6 -3 10 3 10 14 0 12 -4 21 -10 21 -5
0 -10 -6 -10 -14z"/>
</g>
</svg>
