<svg version="1.1" id="Layer_1" xmlns="http://www.w3.org/2000/svg" xmlns:xlink="http://www.w3.org/1999/xlink" x="0px" y="0px"
	 width="100%" viewBox="0 0 302 302" enable-background="new 0 0 302 302" xml:space="preserve">
<circle r="50%" cx="50%" cy="50%" fill="#000" />
<path fill="#FBFBFC" opacity="1.000000" stroke="none" 
	d="
M182.704010,84.369339 
	C188.104568,86.664238 193.152405,88.811684 198.228012,90.891319 
	C204.017685,93.263496 206.572311,97.726517 206.647552,103.787758 
	C206.699234,107.953430 206.634705,112.120407 206.662689,116.286530 
	C206.706726,122.843491 203.744873,127.367851 197.654572,129.858002 
	C189.188034,133.319717 180.731842,136.806839 172.280350,140.305145 
	C171.091873,140.797104 169.955078,141.413956 167.947540,142.380859 
	C177.226578,146.215546 185.709152,149.750031 194.214523,153.228790 
	C205.120041,157.689224 206.657532,159.973938 206.657608,171.982300 
	C206.657654,180.981522 206.650452,189.980759 206.660034,198.979980 
	C206.666489,205.030151 204.319702,209.755508 198.582901,212.134964 
	C169.557297,224.173950 140.491913,236.117035 111.435600,248.081940 
	C110.846420,248.324554 110.198395,248.424240 109.126076,248.711716 
	C109.126076,232.305664 109.025146,216.197800 109.310188,200.096771 
	C109.334007,198.751892 111.733391,196.914841 113.408737,196.213837 
	C137.335449,186.202393 161.327805,176.347839 185.303162,166.452606 
	C186.224411,166.072388 187.175308,165.737717 188.041168,165.254257 
	C191.084442,163.555008 191.279083,160.699677 188.168839,159.349274 
	C178.412933,155.113495 168.586411,151.025513 158.657547,147.218567 
	C157.122452,146.630005 154.784210,147.517853 153.024139,148.232269 
	C139.314087,153.797165 125.655411,159.488647 111.977493,165.132843 
	C111.237442,165.438217 110.467133,165.670273 109.126709,166.142075 
	C109.126709,155.779953 108.988388,145.861267 109.295937,135.956406 
	C109.335884,134.670013 111.453651,132.925476 112.982430,132.286102 
	C137.214859,122.151283 161.522781,112.196999 185.758148,102.069069 
	C187.534897,101.326576 188.888000,99.570328 190.438065,98.285378 
	C188.941833,96.936432 187.669220,95.052925 185.915573,94.319366 
	C162.604294,84.568123 139.228348,74.971329 115.861938,65.352028 
	C108.731773,62.416748 108.722580,62.439087 109.440025,54.209282 
	C133.823730,64.234688 158.093643,74.213303 182.704010,84.369339 
z"/>
</svg>